<svg xmlns="http://www.w3.org/2000/svg" viewBox="0 0 512 512" width="512" height="512">
  <defs>
    <linearGradient id="bg" x1="0%" y1="0%" x2="100%" y2="100%">
      <stop offset="0%" stop-color="#0f172a"/>
      <stop offset="100%" stop-color="#1e1b4b"/>
    </linearGradient>
    <linearGradient id="glow" x1="0%" y1="0%" x2="100%" y2="0%">
      <stop offset="0%" stop-color="#06b6d4"/>
      <stop offset="50%" stop-color="#3b82f6"/>
      <stop offset="100%" stop-color="#6366f1"/>
    </linearGradient>
    <linearGradient id="accent" x1="0%" y1="0%" x2="100%" y2="100%">
      <stop offset="0%" stop-color="#10b981"/>
      <stop offset="100%" stop-color="#06b6d4"/>
    </linearGradient>
  </defs>
  <!-- Background -->
  <rect width="512" height="512" rx="128" fill="url(#bg)"/>
  <!-- Outer glowing ring -->
  <rect x="20" y="20" width="472" height="472" rx="108" fill="none" stroke="url(#glow)" stroke-width="4" opacity="0.3"/>
  <!-- Wallet Shape -->
  <path d="M128 160h256a32 32 0 0 1 32 32v128a32 32 0 0 1-32 32H128a32 32 0 0 1-32-32V192a32 32 0 0 1 32-32z" fill="none" stroke="url(#glow)" stroke-width="20" stroke-linejoin="round"/>
  <!-- Wallet Flap -->
  <path d="M352 224h48a16 16 0 0 1 16 16v32a16 16 0 0 1-16 16h-48V224z" fill="url(#glow)"/>
  <!-- Wallet Button -->
  <circle cx="368" cy="256" r="12" fill="#ffffff"/>
  <!-- Rising Chart Line representing growth -->
  <path d="M150 290l40-40 50 30 70-70 50 30" fill="none" stroke="url(#accent)" stroke-width="16" stroke-linecap="round" stroke-linejoin="round"/>
</svg>
